<?xml version="1.0" encoding="UTF-8"?>
<svg version="1.1" xmlns="http://www.w3.org/2000/svg" width="40" height="40">
<path d="M0 0 C1.27617187 -0.03738281 2.55234375 -0.07476563 3.8671875 -0.11328125 C14.42928632 -0.21250765 14.42928632 -0.21250765 18.09765625 1.9609375 C21.98135398 6.17338225 21.09181761 12.95474811 20.97729492 18.29492188 C20.93758448 20.3705843 20.95659774 22.43985626 20.98242188 24.515625 C20.89931394 34.48857661 20.89931394 34.48857661 18.13598633 38.26098633 C13.25947786 41.83307725 8.19128217 41.15470493 2.33007812 41.08178711 C0.25411439 41.06253815 -1.81516255 41.10197505 -3.890625 41.14648438 C-15.02229674 41.11920087 -15.02229674 41.11920087 -18.15234375 38.2109375 C-21.23743972 32.99137658 -20.42262474 26.14315839 -20.3125 20.3125 C-20.32345703 19.04599609 -20.33441406 17.77949219 -20.34570312 16.47460938 C-20.26306116 6.04519309 -20.26306116 6.04519309 -15.75 1.375 C-11.20119063 -0.89940469 -4.99362732 0.05482026 0 0 Z " fill="#292727" transform="translate(19.75,-0.375)"/>
<path d="M0 0 C1.21171875 0.00322266 2.4234375 0.00644531 3.671875 0.00976562 C4.94289063 0.01814453 6.21390625 0.02652344 7.5234375 0.03515625 C8.8021875 0.03966797 10.0809375 0.04417969 11.3984375 0.04882812 C14.56515042 0.06064422 17.73177106 0.0771181 20.8984375 0.09765625 C20.8984375 0.75765625 20.8984375 1.41765625 20.8984375 2.09765625 C21.5584375 2.09765625 22.2184375 2.09765625 22.8984375 2.09765625 C23.5859375 4.91015625 23.5859375 4.91015625 23.8984375 8.09765625 C22.8359375 9.75390625 22.8359375 9.75390625 20.8984375 11.09765625 C17.76171875 11.609375 17.76171875 11.609375 14.2109375 11.78515625 C12.44169922 11.88376953 12.44169922 11.88376953 10.63671875 11.984375 C9.28126953 12.04044922 9.28126953 12.04044922 7.8984375 12.09765625 C9.8784375 13.41765625 11.8584375 14.73765625 13.8984375 16.09765625 C9.50675243 21.36767833 4.9557996 26.45067676 -0.1015625 31.09765625 C-0.4315625 31.09765625 -0.7615625 31.09765625 -1.1015625 31.09765625 C-1.4315625 25.48765625 -1.7615625 19.87765625 -2.1015625 14.09765625 C-7.96647488 18.92907195 -7.96647488 18.92907195 -11.1015625 25.09765625 C-11.4315625 25.09765625 -11.7615625 25.09765625 -12.1015625 25.09765625 C-12.20979042 22.03420481 -12.28897729 18.97459615 -12.3515625 15.91015625 C-12.38507812 15.04583984 -12.41859375 14.18152344 -12.453125 13.29101562 C-12.51832866 9.03647685 -12.49986961 6.74037909 -10.2109375 3.046875 C-6.74258903 -0.1581359 -4.64422266 -0.02170198 0 0 Z " fill="#444343" transform="translate(12.1015625,-0.09765625)"/>
<path d="M0 0 C0.33 0 0.66 0 1 0 C1.14567407 3.56206722 1.23419196 7.12336551 1.3125 10.6875 C1.35439453 11.69490234 1.39628906 12.70230469 1.43945312 13.74023438 C1.56261265 21.20370181 1.56261265 21.20370181 -1.23828125 25.16796875 C-4.78363065 27.51983419 -6.71007638 27.72046259 -10.84375 27.5 C-14.29371778 26.70000747 -15.90927996 24.74407005 -18 22 C-19.51171518 18.97656964 -19.61444376 17.35076665 -19 14 C-16.47859031 11.80890599 -13.58976084 10.3859794 -10.625 8.875 C-9.04949813 8.04888457 -7.47892884 7.21327625 -5.9140625 6.3671875 C-5.2123291 6.00737793 -4.5105957 5.64756836 -3.78759766 5.27685547 C-1.67251808 3.76608434 -0.97071349 2.38003637 0 0 Z " fill="#0C0C0C" transform="translate(39,13)"/>
<path d="M0 0 C2.62901288 1.52206009 4.84365964 2.84365964 7 5 C7.45931461 10.60363824 7.26728435 13.2994069 4 18 C1.6875 19.77685547 1.6875 19.77685547 -1 21.3671875 C-1.969375 21.94210938 -2.93875 22.51703125 -3.9375 23.109375 C-4.948125 23.69203125 -5.95875 24.2746875 -7 24.875 C-8.010625 25.48085938 -9.02125 26.08671875 -10.0625 26.7109375 C-15.67012405 29.99199413 -15.67012405 29.99199413 -18 31 C-18.99 30.67 -19.98 30.34 -21 30 C-16.71 25.71 -12.42 21.42 -8 17 C-9.65 15.68 -11.3 14.36 -13 13 C-13.33 12.34 -13.66 11.68 -14 11 C-13.01257813 10.95101563 -12.02515625 10.90203125 -11.0078125 10.8515625 C-9.72648437 10.77679688 -8.44515625 10.70203125 -7.125 10.625 C-5.21074219 10.52058594 -5.21074219 10.52058594 -3.2578125 10.4140625 C0.08061699 10.32758894 0.08061699 10.32758894 2 8 C2.16681109 4.91652174 2.16681109 4.91652174 2 2 C1.34 2 0.68 2 0 2 C0 1.34 0 0.68 0 0 Z " fill="#292828" transform="translate(33,0)"/>
<path d="M0 0 C4.48883537 0.89776707 6.57302472 1.71909549 10.3125 4.0625 C11.19550781 4.61035156 12.07851563 5.15820312 12.98828125 5.72265625 C13.65214844 6.14417969 14.31601562 6.56570312 15 7 C10.60831493 12.27002208 6.0573621 17.35302051 1 22 C0.67 22 0.34 22 0 22 C0 14.74 0 7.48 0 0 Z " fill="#03D1F4" transform="translate(11,9)"/>
<path d="M0 0 C0.68449219 0.29777344 1.36898438 0.59554688 2.07421875 0.90234375 C2.07421875 2.22234375 2.07421875 3.54234375 2.07421875 4.90234375 C-0.35169745 6.73147859 -2.61911423 8.22126917 -5.23828125 9.71484375 C-5.92857422 10.13443359 -6.61886719 10.55402344 -7.33007812 10.98632812 C-9.14438437 12.05037053 -11.03268087 12.98579351 -12.92578125 13.90234375 C-13.91578125 13.57234375 -14.90578125 13.24234375 -15.92578125 12.90234375 C-13.88086231 10.69574747 -11.81771689 8.5134933 -9.73828125 6.33984375 C-8.87106445 5.3972168 -8.87106445 5.3972168 -7.98632812 4.43554688 C-3.58061432 -0.11951316 -3.58061432 -0.11951316 0 0 Z " fill="#F10639" transform="translate(27.92578125,17.09765625)"/>
<path d="M0 0 C3.57040303 0.65902299 6.17732255 2.16229158 9.25 4.0625 C10.14203125 4.61035156 11.0340625 5.15820312 11.953125 5.72265625 C12.96632813 6.35494141 12.96632813 6.35494141 14 7 C12.68 8.32 11.36 9.64 10 11 C8.33035479 9.35718838 6.6643536 7.71067239 5 6.0625 C4.071875 5.14597656 3.14375 4.22945312 2.1875 3.28515625 C0 1 0 1 0 0 Z " fill="#02F752" transform="translate(12,9)"/>
<path d="M0 0 C1.65 0.33 3.3 0.66 5 1 C5 2.32 5 3.64 5 5 C3.02 5.99 3.02 5.99 1 7 C0.01 6.01 -0.98 5.02 -2 4 C-1.34 2.68 -0.68 1.36 0 0 Z " fill="#F3CF01" transform="translate(25,17)"/>
<path d="M0 0 C0 3 0 3 -1 6 C-2.65 6.33 -4.3 6.66 -6 7 C-4.02 4.69 -2.04 2.38 0 0 Z " fill="#E60D36" transform="translate(18,24)"/>
</svg>
