<?xml version="1.0" encoding="UTF-8"?>
<svg version="1.1" xmlns="http://www.w3.org/2000/svg" width="40" height="40">
<path d="M0 0 C13.2 0 26.4 0 40 0 C40 13.2 40 26.4 40 40 C26.8 40 13.6 40 0 40 C0 26.8 0 13.6 0 0 Z " fill="#040404" transform="translate(0,0)"/>
<path d="M0 0 C3.87694159 1.0384665 5.33860413 1.56572244 7.5 4.9375 C8.05414584 7.71965491 8.05755813 10.15545739 7.5 12.9375 C4.34722038 17.47750265 -1.35590717 20.22280239 -6.5 21.9375 C-7.11875 20.82375 -7.11875 20.82375 -7.75 19.6875 C-9.44223766 17.02826939 -11.24578693 15.11719363 -13.5 12.9375 C-12.59376275 11.32741848 -11.67454201 9.72464075 -10.75 8.125 C-10.23953125 7.23167969 -9.7290625 6.33835937 -9.203125 5.41796875 C-6.49432353 1.47281065 -4.8637413 -0.08685252 0 0 Z " fill="#CBCBCB" transform="translate(29.5,5.0625)"/>
<path d="M0 0 C3.25 -0.3125 3.25 -0.3125 7 0 C9.5 2.0625 9.5 2.0625 11 5 C10.9375 8.6875 10.9375 8.6875 10 12 C6.30513897 14.46324069 4.36706908 14.38991688 0 14 C-1.9375 12.625 -1.9375 12.625 -3 11 C-3 10.34 -3 9.68 -3 9 C-0.36 9 2.28 9 5 9 C5.41780879 6.62694422 5.41780879 6.62694422 5 4 C2.57327433 2.21030974 2.57327433 2.21030974 0 1 C0 0.67 0 0.34 0 0 Z " fill="#EDEDED" transform="translate(11,21)"/>
<path d="M0 0 C1.98626514 0.7309935 3.96391349 1.48543673 5.9375 2.25 C7.03964844 2.66765625 8.14179688 3.0853125 9.27734375 3.515625 C12 5 12 5 12.87890625 7.171875 C12.91886719 7.77515625 12.95882813 8.3784375 13 9 C8.02398374 10.71050559 4.57383705 9.00885647 0 7 C0 4.69 0 2.38 0 0 Z " fill="#F1F1F1" transform="translate(3,20)"/>
<path d="M0 0 C2.625 0.375 2.625 0.375 5 1 C5.625 2.8125 5.625 2.8125 6 5 C5.01 6.485 5.01 6.485 4 8 C2.35 7.67 0.7 7.34 -1 7 C-1.625 4.625 -1.625 4.625 -2 2 C-1.34 1.34 -0.68 0.68 0 0 Z " fill="#F0F0F0" transform="translate(27,10)"/>
</svg>
